<?xml version="1.0" encoding="utf-8"?>
<!-- Generator: Adobe Illustrator 19.2.1, SVG Export Plug-In . SVG Version: 6.00 Build 0)  -->
<svg version="1.1" id="layer" xmlns="http://www.w3.org/2000/svg" xmlns:xlink="http://www.w3.org/1999/xlink" x="0px" y="0px"
	 viewBox="0 0 652 652" style="enable-background:new 0 0 652 652;" xml:space="preserve">
<path d="M115.3,387.4c9.4,0,16.5,5.5,16.5,16.5v31h-11.1v-27.7c0-6.9-3.9-10.6-9.7-10.6c-5.4,0-10.7,2-14.7,5.7v32.7H85.1v-46.6
	h11.1v6.1C101.7,389.9,108.5,387.4,115.3,387.4L115.3,387.4z M233.7,411.6v3h-36.6c0.3,7.7,6.8,13,14.3,13c4.8,0,9.4-1.8,12.8-5.1
	l5.9,5.3c-5.2,5.2-12.2,8-19.6,8c-13.4,0-24.1-10.9-24.1-24.2c0-13.5,10.6-24.2,23.6-24.2C224.9,387.4,233.7,398.2,233.7,411.6z
	 M210.3,395.4c-7.1,0-13,6.1-13,13.7h26.1C223.3,401.5,218.4,395.4,210.3,395.4L210.3,395.4z M328.5,434.9l-9.3-30l-9.3,30h-12
	L283,388.3h11.1l10.3,34.4l10.4-34.4h8.8l10.4,34.4l10.3-34.4h11.1l-14.8,46.6H328.5z M424.3,387.4c6.9,0,13.9,1.9,19,5.1l-3.7,6.9
	c-4.7-2.8-10.6-4.5-15.3-4.5c-4.1,0-7.7,1.7-7.7,5.7c0,2.6,1.5,3.7,8.9,5.7c11.4,3.1,19,5.3,19,15.2c0,9.4-7.9,14.3-18.8,14.2
	c-8,0-15.8-2.2-21.6-6.2l4-6.6c5.3,3.4,11.4,5.2,17.6,5.3c4.5,0,8.5-1.6,8.5-5.6c0-4.7-3.1-5.1-11.1-7.3
	c-10.8-2.9-16.9-5.6-16.9-13.8C406.2,391.7,414.3,387.3,424.3,387.4L424.3,387.4z M541.6,263h-37v-13.4h89.3V263h-37v94.5h-15.3
	L541.6,263z M453.1,358.7c-10.8,0-20.5-2.4-29.2-7.2c-8.5-4.6-15.5-11.4-20.4-19.7c-4.9-8.4-7.4-17.8-7.4-28.3s2.4-19.9,7.4-28.3
	c4.9-8.3,12-15.1,20.5-19.7c8.7-4.8,18.5-7.2,29.3-7.2c8.4,0,16.1,1.4,23.1,4.2c6.9,2.7,13,7,17.9,12.6l-10,9.7
	c-8.1-8.5-18.3-12.8-30.4-12.8c-8,0-15.3,1.8-21.7,5.4c-6.3,3.5-11.6,8.6-15.2,14.9c-3.7,6.3-5.5,13.4-5.5,21.2
	c0,7.8,1.8,14.9,5.5,21.2c3.6,6.3,8.9,11.4,15.2,14.9c6.5,3.6,13.7,5.4,21.7,5.4c12,0,22.1-4.3,30.4-13l10,9.7
	c-4.9,5.5-11.1,9.9-17.9,12.6C469.2,357.3,461.5,358.7,453.1,358.7z M351.8,318.2l-23.3-52.9l-23.2,52.9H351.8z M357.2,330.5h-57.4
	l-11.8,27h-15.9L321,249.6h15.3l49,107.9h-16.2L357.2,330.5z M258.4,344.1v13.4h-78.3V249.6h76.2V263h-60.7v33.1h54.1v13.1h-54.1
	V344L258.4,344.1L258.4,344.1z M104.6,311.6c9.8,0,17.2-2.1,22.4-6.3c5.2-4.2,7.7-10.2,7.7-18s-2.6-13.8-7.7-17.9
	c-5.1-4.1-12.6-6.2-22.4-6.2H78.4v48.5H104.6z M135.1,357.5l-23.3-33.2c-2.9,0.2-5.1,0.3-6.8,0.3H78.4v32.9H63V249.6h42.1
	c14,0,25,3.3,33,10c8,6.7,12,15.9,12,27.6c0,8.3-2,15.4-6.2,21.3c-4.1,5.9-10,10.2-17.6,12.8l25.6,36.2H135.1z M621.6,420.1H512.8
	v-18.1h90.7v-40.8h18.2V420.1z M39.7,265H21.6v-58.9h126.9v18.1H39.7V265z"/>
</svg>
